:SAMPLES-PER-SECOND 30
:FULLY-SPECIFIED
:DEGREES
824
root  -65.6066 40.3681 -0.0967447 -114.822 -89.2536 114.905
RightUpLeg  -12.4492 -4.50692 -2.27349
RightLeg  17.3469 7.38537 2.17413
RightFoot  -2.61251 -0.0427005 0.323824
RightToes  2.21189e-009 0 -3.6325e-017
Spine  12.0489 -0.356548 6.07856
Spine1  7.42053 1.17486 -4.23609
HEad  -12.1012 2.24919 -2.17845
LeftShoulder1  1.91991 -4.08827 -18.7454
LeftArm  -25.0715 -54.1681 -42.0842
LeftForeArm  -1.12355 -35.4985 -8.08069
LeftHand  -0.233816 2.73087 9.52183
RightShoulder  1.09524 1.61104 14.6265
RightArm  -16.9865 61.9126 43.3391
RightForeArm  -18.414 28.5533 7.17069
RightHand  -2.09861 11.3136 -14.8754
LeftUpLeg  -14.2156 2.6483 1.63988
LeftLeg  11.8849 -11.5218 -2.17336
LeftFoot  3.55433 -0.244633 1.70621
LeftToes  -3.01956e-010 3.07132e-011 1.04116e-011
825
root  -65.2993 40.2551 -0.0593716 -168.667 -88.4581 169.043
RightUpLeg  -14.9038 -4.61758 -2.25859
RightLeg  20.1676 8.55096 3.27844
RightFoot  -2.35413 -0.125938 1.37824
RightToes  2.21189e-009 0 -3.6325e-017
Spine  13.022 -0.0459846 5.30511
Spine1  7.50961 1.40905 -3.8782
HEad  -11.8024 2.85428 -2.22969
LeftShoulder1  1.8422 -3.73845 -18.9178
LeftArm  -26.8283 -50.411 -45.7278
LeftForeArm  5.92865 -42.8611 -10.0215
LeftHand  -0.49424 0.724364 12.3979
RightShoulder  1.06137 1.26531 15.5508
RightArm  -18.098 58.1152 44.8314
RightForeArm  -11.3382 39.3014 9.85512
RightHand  -2.30028 12.0001 -15.6157
LeftUpLeg  -15.3806 3.53109 1.89687
LeftLeg  12.8471 -11.4399 -2.48006
LeftFoot  3.37014 -0.218959 1.53909
LeftToes  -3.01956e-010 3.07132e-011 1.04116e-011
826
root  -64.9853 40.0852 -0.0395963 -171.756 -87.3678 172.141
RightUpLeg  -17.3263 -5.41055 -2.46603
RightLeg  23.6803 11.0378 5.04836
RightFoot  -2.44833 -0.274223 3.33508
RightToes  2.21189e-009 0 -3.6325e-017
Spine  14.3831 0.0412042 3.97541
Spine1  7.15738 1.32935 -3.40511
HEad  -10.9756 4.6017 -2.96667
LeftShoulder1  1.76117 -3.17076 -19.9083
LeftArm  -26.2003 -45.0824 -47.7136
LeftForeArm  12.8085 -50.918 -12.8952
LeftHand  -0.707694 -0.627224 13.7655
RightShoulder  1.03071 0.853197 17.1344
RightArm  -16.4066 53.6043 46.8575
RightForeArm  -3.60396 50.582 14.0452
RightHand  -2.67963 12.7132 -17.452
LeftUpLeg  -16.6159 4.66266 2.00472
LeftLeg  14.5509 -11.4007 -3.01438
LeftFoot  2.8887 -0.216558 1.59247
LeftToes  -3.01956e-010 3.07132e-011 1.04116e-011
827
root  -64.7006 39.871 -0.0898856 -168.716 -86.4422 168.656
RightUpLeg  -18.9772 -4.62679 -3.48292
RightLeg  27.2578 13.3521 7.16489
RightFoot  -4.23678 -0.530068 8.28175
RightToes  2.21189e-009 0 -3.6325e-017
Spine  15.1366 0.0814749 2.92936
Spine1  7.96707 1.53229 -4.128
HEad  -9.92911 6.36536 -3.71454
LeftShoulder1  1.76122 -2.9485 -20.9214
LeftArm  -23.5362 -39.46 -48.6006
LeftForeArm  19.7095 -57.9016 -16.3367
LeftHand  -0.944346 -2.2072 14.6544
RightShoulder  0.911707 0.0957849 18.9238
RightArm  -13.1875 48.0823 48.3985
RightForeArm  5.82218 61.1629 20.5539
RightHand  -2.64977 10.9199 -19.0261
LeftUpLeg  -17.41 5.73362 1.87921
LeftLeg  16.4251 -11.5358 -3.56795
LeftFoot  2.16532 -0.171551 1.33968
LeftToes  -3.01956e-010 3.07132e-011 1.04116e-011
828
root  -64.4456 39.6659 -0.203763 -161.875 -85.7025 161.077
RightUpLeg  -19.8851 -2.12392 -5.20256
RightLeg  31.3099 14.8422 9.33177
RightFoot  -6.92378 -0.556761 12.9116
RightToes  2.21189e-009 0 -3.6325e-017
Spine  15.5383 0.0967398 0.690651
Spine1  9.51087 1.21341 -3.61686
HEad  -9.09344 8.43117 -4.29939
LeftShoulder1  1.60976 -2.04759 -22.6867
LeftArm  -19.7823 -34.0324 -48.1706
LeftForeArm  25.6007 -62.6028 -19.5904
LeftHand  -0.879969 -1.23233 15.5513
RightShoulder  0.865474 -0.245307 20.2758
RightArm  -8.7784 41.9795 49.7217
RightForeArm  17.7367 69.059 29.5017
RightHand  -2.41682 10.1831 -18.2503
LeftUpLeg  -17.7368 6.398 1.52157
LeftLeg  17.9895 -11.5032 -3.98122
LeftFoot  1.626 -0.158115 1.3039
LeftToes  -3.01956e-010 3.07132e-011 1.04116e-011
829
root  -64.1681 39.5181 -0.405137 -160.701 -86.3598 159.371
RightUpLeg  -20.3442 0.598797 -6.14922
RightLeg  35.8375 13.7529 10.2009
RightFoot  -8.24284 -0.401091 12.6135
RightToes  2.21189e-009 0 -3.6325e-017
Spine  15.3246 -0.124895 0.075628
Spine1  11.3692 0.82296 -3.31243
HEad  -8.12276 10.0724 -5.263
LeftShoulder1  1.51145 -1.50217 -23.9444
LeftArm  -15.0753 -27.6639 -48.3524
LeftForeArm  30.6885 -65.3951 -21.931
LeftHand  -1.12272 -3.0352 15.6405
RightShoulder  0.718752 -0.924417 21.8716
RightArm  -4.06594 35.6975 48.9676
RightForeArm  29.0991 73.3932 38.5882
RightHand  -2.55259 12.1255 -17.1506
LeftUpLeg  -18.301 6.3606 1.9017
LeftLeg  19.193 -12.1377 -4.40552
LeftFoot  1.52703 -0.118745 0.97358
LeftToes  -3.01956e-010 3.07132e-011 1.04116e-011
830
root  -63.8972 39.4313 -0.652613 -156.414 -87.6453 155.023
RightUpLeg  -20.4071 3.26631 -6.88459
RightLeg  39.976 10.9853 9.47119
RightFoot  -9.07727 -0.270836 10.5759
RightToes  2.21189e-009 0 -3.6325e-017
Spine  14.6072 -0.391065 0.649537
Spine1  12.7402 0.681595 -3.62213
HEad  -6.45107 11.4953 -6.17877
LeftShoulder1  1.53376 -1.37131 -25.2664
LeftArm  -9.68565 -21.2007 -48.0527
LeftForeArm  32.6521 -65.4729 -21.79
LeftHand  -1.08217 -3.12259 14.9717
RightShoulder  0.392248 -2.21256 24.8454
RightArm  1.4554 29.2018 46.409
RightForeArm  35.1864 74.8642 43.1083
RightHand  -2.51584 12.173 -16.8827
LeftUpLeg  -19.0608 5.30454 2.41473
LeftLeg  19.5376 -12.4088 -4.49728
LeftFoot  1.9227 -0.0649245 0.45732
LeftToes  -3.01956e-010 3.07132e-011 1.04116e-011
831
root  -63.6342 39.3206 -0.994444 -150.535 -88.2524 148.783
RightUpLeg  -19.5008 6.49139 -7.46205
RightLeg  43.3667 9.06911 8.79102
RightFoot  -9.37082 -0.218175 8.9838
RightToes  2.21189e-009 0 -3.6325e-017
Spine  13.374 -0.335292 1.94537
Spine1  14.9893 1.45086 -5.4518
HEad  -5.20302 12.1952 -6.59201
LeftShoulder1  1.58335 -1.37928 -26.251
LeftArm  -4.72671 -15.6968 -47.0971
LeftForeArm  30.8019 -62.6331 -19.0662
LeftHand  -0.906024 -3.81621 11.6724
RightShoulder  0.0538196 -3.32012 27.3155
RightArm  6.25189 22.0916 44.4486
RightForeArm  33.8521 73.9622 39.6921
RightHand  -2.21273 11.3684 -15.5808
LeftUpLeg  -19.467 4.98772 3.00616
LeftLeg  20.0535 -12.8108 -4.76179
LeftFoot  2.17878 -0.0187556 0.0468941
LeftToes  -3.01956e-010 3.07132e-011 1.04116e-011
832
root  -63.3668 39.2126 -1.41749 -128.212 -88.4302 126.141
RightUpLeg  -17.9384 9.80152 -8.03916
RightLeg  45.5424 8.01998 8.37634
RightFoot  -9.28716 -0.204006 7.85468
RightToes  2.21189e-009 0 -3.6325e-017
Spine  13.3077 -0.0389877 1.20161
Spine1  14.7815 1.46125 -4.89494
HEad  -3.71317 14.026 -7.40741
LeftShoulder1  1.39804 -0.62506 -27.9683
LeftArm  0.341548 -9.11891 -45.9773
LeftForeArm  27.9932 -57.2938 -15.1027
LeftHand  -0.928096 -2.86566 13.2615
RightShoulder  -0.0205548 -3.53217 28.0389
RightArm  11.3759 14.09 43.6959
RightForeArm  25.4921 69.9623 30.2994
RightHand  -1.75129 11.1694 -12.6231
LeftUpLeg  -19.6714 5.00861 3.27481
LeftLeg  20.0925 -13.3755 -5.001
LeftFoot  2.58055 0.0656371 -0.663592
LeftToes  -3.01956e-010 3.07132e-011 1.04116e-011
833
root  -63.074 39.1039 -1.85076 -84.175 -88.4082 81.2207
RightUpLeg  -14.6138 12.0839 -8.13923
RightLeg  45.9104 8.14451 8.61096
RightFoot  -9.58873 -0.169742 6.95613
RightToes  2.21189e-009 0 -3.6325e-017
Spine  14.0212 -0.12982 -0.354627
Spine1  13.8143 0.4535 -2.87023
HEad  -2.08685 16.3467 -8.60742
LeftShoulder1  0.906698 1.04817 -30.6464
LeftArm  3.7431 -3.2711 -44.4304
LeftForeArm  26.5957 -49.8741 -11.3594
LeftHand  -0.871275 -2.07283 13.7353
RightShoulder  0.128166 -3.08642 26.9981
RightArm  15.4625 6.2415 44.9045
RightForeArm  15.7593 62.42 20.671
RightHand  -1.63204 10.7457 -12.0586
LeftUpLeg  -19.3834 3.7098 3.65612
LeftLeg  19.9288 -13.5537 -4.98366
LeftFoot  3.203 0.177316 -1.54352
LeftToes  -3.01956e-010 3.07132e-011 1.04116e-011
834
root  -62.6806 38.9006 -2.36863 -36.6421 -87.0145 33.5256
RightUpLeg  -11.5558 13.1537 -8.18215
RightLeg  45.2398 8.73573 9.02836
RightFoot  -12.0784 -0.0301925 8.09868
RightToes  2.21189e-009 0 -3.6325e-017
Spine  13.3612 -0.452138 0.45498
Spine1  13.9617 0.487537 -3.95818
HEad  -1.05663 17.06 -8.36691
LeftShoulder1  0.778391 1.37212 -30.4749
LeftArm  7.90521 -0.79497 -44.8699
LeftForeArm  22.7217 -37.6749 -7.07369
LeftHand  -0.579859 -0.535319 11.2563
RightShoulder  -0.136648 -3.86597 28.9859
RightArm  17.6067 0.931258 44.8258
RightForeArm  10.165 52.6523 13.9999
RightHand  -1.36602 9.48611 -11.0058
LeftUpLeg  -20.4213 2.03092 3.932
LeftLeg  20.1479 -14.1092 -5.26594
LeftFoot  3.93539 0.28429 -2.29663
LeftToes  -3.01956e-010 3.07132e-011 1.04116e-011
835
root  -62.2116 38.6969 -2.90972 -27.241 -85.2092 23.4602
RightUpLeg  -7.61799 13.7492 -7.66591
RightLeg  42.8819 9.32941 8.89008
RightFoot  -15.9767 0.261316 8.8989
RightToes  2.21189e-009 0 -3.6325e-017
Spine  13.1624 -0.495164 1.26464
Spine1  14.0565 0.545024 -4.0982
HEad  0.338791 17.3141 -7.93802
LeftShoulder1  0.554015 2.03885 -31.7214
LeftArm  10.0726 -0.943745 -44.3949
LeftForeArm  18.1499 -22.589 -5.4403
LeftHand  -0.176132 2.78091 7.46872
RightShoulder  -0.309508 -4.33383 29.9669
RightArm  17.8345 -2.79728 45.3667
RightForeArm  5.37118 41.3069 9.43524
RightHand  -1.37874 9.70653 -10.9431
LeftUpLeg  -20.8643 0.326699 4.35611
LeftLeg  19.9715 -14.4192 -5.35153
LeftFoot  4.81756 0.455774 -3.41863
LeftToes  -3.01956e-010 3.07132e-011 1.04116e-011
